# xmcd
#
# Track frame offsets:
# 150
# 16339
# 30591
# 40851
# 68070
# 86672
# 109024
# 122934
# 148941
# 164093
# 181316
# 195541
# 217758
#
# Disc length: 2980 seconds
#
#
# Revision: 0
# Processed by: cddbd v1.4PL0 Copyright (c) Steve Scherf et al.
# Submitted via: FreeRIP 2.20 
#
DISCID=b40ba20d
DTITLE=John Tuffs - The Music of Life
DYEAR=2000
DGENRE=Contemporary Christian
TTITLE0=The Music of Life
TTITLE1=I Wanna Live
TTITLE2=How Beautiful is Your Temple
TTITLE3=Alphatastic
TTITLE4=Miles Down the Track
TTITLE5=Quality Life
TTITLE6=Agape Live It
TTITLE7=Glory
TTITLE8=We Come to Sing
TTITLE9=Oh Lord You Have Searched Me
TTITLE10=Joy
TTITLE11=Today
TTITLE12=The Music of Life Reprise
EXTD=
EXTT0=
EXTT1=
EXTT2=Psalm 84
EXTT3=
EXTT4=For Miles
EXTT5=For Emily
EXTT6=
EXTT7=
EXTT8=
EXTT9=Psalm 139
EXTT10=
EXTT11=For Leonie
EXTT12=
PLAYORDER=
